<svg width="341" height="122" viewBox="0 0 341 122" fill="none" xmlns="http://www.w3.org/2000/svg">
<path d="M38.8 71.9C38.8 75.8 38.2 78.9 36.9 81.2C35.6 83.5 34 85.2 31.9 86.4C29.9 87.6 27.6 88.4 25.1 88.7C22.6 89.1 20.2 89.2 17.8 89.2C13.9 89.2 10.8 88.7 8.4 87.6C6 86.5 4.1 85.1 2.9 83.3C1.6 81.5 0.8 79.4 0.4 77.1C0 74.7 -0.1 72.3 0.1 69.7H12.7C12.7 71.1 12.8 72.5 12.9 73.8C13 75.1 13.3 76.2 13.7 77.2C14.1 78.2 14.9 78.9 15.8 79.5C16.8 80.1 18.1 80.3 19.8 80.3C21.9 80.3 23.5 79.7 24.5 78.4C25.6 77.2 26.1 75.5 26.1 73.4C26.1 71.6 25.5 70.1 24.2 68.7C23 67.4 21.4 66.1 19.5 64.9C17.6 63.7 15.6 62.5 13.4 61.3C11.2 60.1 9.2 58.7 7.3 57.1C5.4 55.5 3.8 53.7 2.6 51.6C1.4 49.5 0.7 46.9 0.7 43.9C0.7 41.6 1 39.4 1.7 37.3C2.3 35.2 3.4 33.5 4.9 31.9C6.4 30.4 8.4 29.2 11 28.3C13.6 27.4 16.7 27 20.6 27C26.7 27 31.2 28.4 34.2 31.3C37.2 34.2 38.5 38.8 38.1 45H25.9C25.9 43.9 25.8 42.8 25.7 41.7C25.6 40.6 25.3 39.6 24.9 38.8C24.5 37.9 23.9 37.2 23.2 36.7C22.5 36.2 21.4 35.9 20.2 35.9C18.1 35.9 16.6 36.4 15.4 37.5C14.3 38.6 13.7 40.2 13.7 42.3C13.7 44.2 14.3 45.8 15.6 47.1C16.8 48.4 18.4 49.7 20.3 50.8C22.2 51.9 24.2 53 26.4 54.2C28.6 55.3 30.6 56.7 32.5 58.2C34.4 59.7 36 61.6 37.2 63.7C38.2 66.1 38.8 68.7 38.8 71.9Z" fill="black"/>
<path d="M83.3002 28.2V38.2H69.3002V88.3H56.7002V38.2H42.7002V28.2H83.3002Z" fill="black"/>
<path d="M148 88.3H135.4V28.2H158.6C162.9 28.2 166.4 29.5 168.9 32.2C171.4 34.9 172.7 38.8 172.7 43.9C172.7 47.7 171.9 50.9999 170.2 53.5999C168.5 56.2999 165.6 57.8999 161.6 58.5999V58.7999C162.3 58.9 163.2 59.0999 164.4 59.2999C165.6 59.5 166.8 60 168 60.7999C169.2 61.5999 170.2 62.7 171.1 64.3C172 65.8 172.4 67.8999 172.4 70.6999C172.4 71.5999 172.4 72.9999 172.4 74.6999C172.4 76.3999 172.5 78.2 172.6 80C172.7 81.7999 172.9 83.5 173.1 85.0999C173.3 86.6999 173.5 87.7 173.8 88.3H161.5C160.7 86.5 160.2 84.5999 160.2 82.5999C160.2 80.5999 160.2 78.5999 160.2 76.6999C160.2 74.8999 160.2 73.1999 160.2 71.5999C160.2 70 159.9 68.6 159.4 67.4C158.9 66.2 158 65.2999 156.7 64.5C155.5 63.7999 153.6 63.4 151.3 63.4H148V88.3ZM148 54.2H153.6C154.8 54.2 155.8 53.9 156.7 53.4C157.5 52.8 158.2 52.0999 158.7 51.2999C159.2 50.4 159.5 49.5 159.7 48.4C159.9 47.3 160 46.3 160 45.4C160 42.5 159.4 40.4999 158.3 39.2999C157.2 38.0999 155.6 37.5 153.6 37.5H148V54.2Z" fill="black"/>
<path d="M219 71.9C219 75.8 218.4 78.9 217.1 81.2C215.8 83.5 214.2 85.2 212.1 86.4C210.1 87.6 207.8 88.4 205.3 88.7C202.8 89.1 200.4 89.2 198 89.2C194.1 89.2 191 88.7 188.6 87.6C186.2 86.5 184.3 85.1 183.1 83.3C181.8 81.5 181 79.4 180.6 77.1C180.2 74.7 180.1 72.3 180.3 69.7H192.9C192.9 71.1 193 72.5 193.1 73.8C193.2 75.1 193.5 76.2 193.9 77.2C194.3 78.2 195.1 78.9 196 79.5C197 80.1 198.3 80.3 200 80.3C202.1 80.3 203.7 79.7 204.7 78.4C205.8 77.2 206.3 75.5 206.3 73.4C206.3 71.6 205.7 70.1 204.4 68.7C203.2 67.4 201.6 66.1 199.7 64.9C197.8 63.7 195.8 62.5 193.6 61.3C191.4 60.1 189.4 58.7 187.5 57.1C185.6 55.5 184 53.7 182.8 51.6C181.6 49.5 180.9 46.9 180.9 43.9C180.9 41.6 181.2 39.4 181.9 37.3C182.5 35.2 183.6 33.5 185.1 31.9C186.6 30.4 188.6 29.2 191.2 28.3C193.8 27.4 196.9 27 200.8 27C206.9 27 211.4 28.4 214.4 31.3C217.4 34.2 218.7 38.8 218.3 45H206C206 43.9 205.9 42.8 205.8 41.7C205.7 40.6 205.4 39.6 205 38.8C204.6 37.9 204 37.2 203.3 36.7C202.6 36.2 201.5 35.9 200.3 35.9C198.2 35.9 196.7 36.4 195.5 37.5C194.4 38.6 193.8 40.2 193.8 42.3C193.8 44.2 194.4 45.8 195.7 47.1C196.9 48.4 198.5 49.7 200.4 50.8C202.3 51.9 204.3 53 206.5 54.2C208.7 55.3 210.7 56.7 212.6 58.2C214.5 59.7 216.1 61.6 217.3 63.7C218.4 66.1 219 68.7 219 71.9Z" fill="#878787"/>
<path d="M254.9 52.2V28.2H267.5V88.3H254.9V61.5H240.5V88.3H228V28.2H240.6V52.2H254.9Z" fill="#878787"/>
<path d="M278.8 88.3V28.2H291.4V88.3H278.8Z" fill="#878787"/>
<path d="M301.6 28.2H324.2C327.1 28.2 329.5 28.6 331.6 29.4C333.6 30.1999 335.3 31.4 336.6 33C337.9 34.6 338.8 36.5 339.4 38.7C340 40.9 340.3 43.3999 340.3 46.0999C340.3 47.7999 340.1 49.6999 339.8 51.7999C339.4 53.9 338.7 55.7999 337.5 57.5C336.3 59.2999 334.6 60.7999 332.4 62C330.2 63.2 327.2 63.7999 323.6 63.7999H314.3V88.3H301.7V28.2H301.6ZM314.1 54.5999H321.1C322 54.5999 322.9 54.4 323.7 53.9C324.5 53.4 325.1 52.7999 325.7 52.0999C326.3 51.3999 326.7 50.5 327 49.5C327.3 48.5 327.5 47.5 327.5 46.5C327.5 45.2999 327.4 44.1 327.2 43C327 41.9 326.6 40.8999 326.1 40.0999C325.6 39.2999 324.9 38.5999 323.9 38.0999C323 37.5999 321.8 37.4 320.4 37.4H314.1V54.5999Z" fill="#878787"/>
<path d="M1.7998 121.8V103.6H11.1998V105.6H4.1998V111.5H10.7998V113.5H4.1998V119.8H11.3998V121.8H1.7998Z" fill="black"/>
<path d="M39.1996 103.5V121.7H35.9996L28.7996 105.9H28.6996V121.7H26.5996V103.5H29.9996L37.0996 119.1H37.1996V103.5H39.1996Z" fill="black"/>
<path d="M65.7994 103.5V105.5H60.9994V121.7H58.6994V105.5H53.8994V103.5H65.7994Z" fill="black"/>
<path d="M80.5996 121.8V103.6H89.9996V105.6H82.8996V111.5H89.4996V113.5H82.8996V119.8H90.0996V121.8H80.5996Z" fill="black"/>
<path d="M107.6 113.4V121.8H105.3V103.6H111.6C112.4 103.6 113.1 103.7 113.6 104C114.2 104.3 114.6 104.6 115 105C115.3 105.4 115.6 105.9 115.7 106.5C115.9 107 115.9 107.6 115.9 108.2C115.9 109.3 115.6 110.2 115 111C114.4 111.8 113.6 112.2 112.5 112.4V112.5C113 112.6 113.5 112.7 113.8 112.9C114.2 113.1 114.5 113.3 114.7 113.6C114.9 113.9 115.1 114.4 115.2 115C115.3 115.6 115.4 116.3 115.4 117.2C115.4 117.4 115.4 117.7 115.5 118.1C115.5 118.5 115.6 119 115.6 119.4C115.7 119.9 115.7 120.3 115.8 120.8C115.9 121.3 116 121.6 116 121.9H113.6C113.4 121.6 113.3 121.2 113.2 120.8C113.1 120.4 113.1 119.9 113 119.3C113 118.8 112.9 118.2 112.9 117.6C112.9 117 112.8 116.4 112.8 115.8C112.7 115.2 112.6 114.8 112.4 114.5C112.2 114.2 111.9 114 111.7 113.8C111.4 113.6 111.1 113.6 110.8 113.5C110.5 113.5 110.3 113.4 110.1 113.4H107.6ZM107.6 111.3H111.1C111.5 111.3 111.9 111.2 112.2 111C112.5 110.8 112.8 110.6 113 110.3C113.2 110 113.4 109.7 113.5 109.3C113.6 108.9 113.7 108.6 113.7 108.1C113.7 107.8 113.7 107.5 113.6 107.1C113.5 106.8 113.4 106.5 113.2 106.2C113 105.9 112.8 105.7 112.4 105.6C112.1 105.4 111.7 105.3 111.3 105.3H107.8V111.3H107.6Z" fill="black"/>
<path d="M142.6 103.5V105.5H137.8V121.7H135.5V105.5H130.7V103.5H142.6Z" fill="black"/>
<path d="M161.6 103.5H164.6L170.5 121.7H167.9L166.6 117.4H159.5L158.1 121.7H155.7L161.6 103.5ZM163 105.7L160.1 115.4H165.9L163 105.7Z" fill="black"/>
<path d="M187.699 121.8H185.399V103.6H187.699V121.8Z" fill="black"/>
<path d="M218.1 103.5V121.7H215L207.8 105.9H207.7V121.7H205.6V103.5H208.9L216 119.1H216.1V103.5H218.1Z" fill="black"/>
<path d="M236.7 121.8H234.5V103.6H238.3L242.9 118.9H243L247.7 103.6H251.5V121.8H249.2V105.6H249.1L244 121.8H241.8L236.8 105.6H236.7V121.8Z" fill="black"/>
<path d="M267.7 121.8V103.6H277.1V105.6H270V111.5H276.6V113.5H270V119.8H277.2V121.8H267.7Z" fill="black"/>
<path d="M306.6 103.5V121.7H303.4L296.2 105.9H296.1V121.7H294V103.5H297.3L304.4 119.1H304.5V103.5H306.6Z" fill="black"/>
<path d="M333.2 103.5V105.5H328.4V121.7H326.1V105.5H321.3V103.5H333.2Z" fill="black"/>
<path d="M101.7 72.6C100.8 72.4 100.5 72.7 100.2 73.1C99.9001 73.5 98.8001 75.8 98.0001 77.8C97.2001 79.8 96.4001 82.5 96.3001 83C96.2001 83.5 96.4001 84.6 97.2001 84.6C98.0001 84.6 98.3001 83.8 98.4001 83.6C98.5001 83.4 99.7001 80.2 100.1 79.1C100.5 78 101.6 75.2 101.9 74.1C102.4 73.1 101.7 72.6 101.7 72.6Z" fill="black"/>
<path d="M105.7 77.5C105.6 76.6 104.8 76.5 104.8 76.5C104.8 76.5 103.7 76.3 103.6 77.5C103.5 78.6 103.3 88 103.3 89.6C103.3 91.2 103.1 93.1 104.2 93.1C105.4 93.1 105.3 91.9001 105.3 91.9001C105.6 87.2001 105.7 78.4 105.7 77.5Z" fill="black"/>
<path d="M111.6 76.7C111 75.3 110.3 75.7 110.1 75.8C109.9 75.9 109.6 76 109.5 76.6C109.4 77.2 111.1 83.9 111.5 85.5C111.9 87.1 112.4 87.5 113.3 87.2C114.2 87 113.8 85.3 113.8 85.3C113.6 82.9 112.2 78.1 111.6 76.7Z" fill="black"/>
<path d="M126 57.9999C125.8 52.4999 125.3 50.3999 123.8 48.1999C122.3 45.9999 120 45.5999 120 45.5999C120 45.5999 120.3 41.7999 119.8 33.8999C119.3 25.9999 115.3 15.5999 113.5 11.7999C112.3 9.39993 109.8 4.59993 108.1 1.49993C107.2 -0.100069 105.1 -0.500069 103.7 0.699931C94.7001 8.79993 92.3001 23.8999 92.3001 23.8999C91.1001 29.5999 89.8001 36.5999 89.8001 44.9999C89.8001 45.3999 89.8001 45.8999 89.8001 46.2999L87.7001 47.5999L83.5001 57.9999C83.5001 57.9999 83.0001 58.9999 83.1001 59.9999C83.2001 60.8999 84.5001 73.4999 84.5001 73.4999C84.5001 73.4999 84.7001 75.7999 86.3001 75.7999C87.9001 75.7999 89.0001 73.7999 90.2001 72.4999C91.3001 71.1999 95.2001 66.9999 96.3001 66.8999C97.2001 67.0999 101.1 67.7999 106.6 67.7999C110.8 67.7999 112.6 67.5999 114 66.9999C115.8 68.7999 123.3 76.0999 124.6 76.0999C125.5 76.0999 125.7 73.9999 126 72.1999C126.3 70.2999 126.3 63.4999 126 57.9999ZM105.2 5.49993C105.2 5.49993 107.9 9.89993 108.2 11.1999C108.5 12.3999 110.3 16.3999 111.1 18.0999C111.8 19.7999 113.2 23.7999 113.2 23.7999H96.9001C96.9001 23.8999 99.3001 10.8999 105.2 5.49993ZM88.0001 67.7999C87.8001 66.6999 87.2001 61.4999 87.1001 59.9999C87.0001 58.4999 87.3001 58.1999 88.3001 55.7999C89.2001 53.5999 90.2001 52.2999 90.4001 51.9999C91.1001 56.9999 92.4001 61.6999 92.7001 63.3999C92.7001 63.4999 92.7001 63.4999 92.8001 63.5999C91.3001 64.5999 88.0001 67.7999 88.0001 67.7999ZM106.6 63.3999C102.7 63.3999 99.2001 63.0999 97.7001 62.8999C97.3001 62.8999 96.9001 62.4999 96.8001 62.0999C96.2001 59.5999 94.3001 50.8999 94.3001 44.9999C94.3001 38.0999 95.3001 32.8999 95.3001 32.8999H115.3C115.3 32.8999 116 36.8999 116 41.1999C116 45.0999 114.7 58.4999 114.2 62.2999C114.1 62.7999 113.7 63.0999 113.3 63.1999C112.2 63.2999 110 63.3999 106.6 63.3999ZM121.8 68.3999C121.8 68.3999 119.8 66.3999 117.5 64.4999C118.8 62.2999 118.9 58.8999 118.9 58.8999L119.6 50.2999C120.3 50.8999 121.7 52.4999 121.9 55.8999C122.2 60.3999 121.8 68.3999 121.8 68.3999Z" fill="black"/>
<path d="M114.3 45.6L107.9 44.6L105.1 39L102.4 44.6L96 45.6L100.6 49.9L99.5 56.5L105.1 53.3L110.8 56.5L109.7 49.9L114.3 45.6Z" fill="#FFA200"/>
</svg>
