<?xml version="1.0" encoding="utf-8"?>
<!-- Generator: Adobe Illustrator 25.0.0, SVG Export Plug-In . SVG Version: 6.00 Build 0)  -->
<svg version="1.1" id="Layer_1" xmlns="http://www.w3.org/2000/svg" xmlns:xlink="http://www.w3.org/1999/xlink" x="0px" y="0px"
	 viewBox="0 0 77 144" style="enable-background:new 0 0 77 144;" xml:space="preserve">
<style type="text/css">
	.st0{fill:#FFFFFF;}
	.st1{fill:#FFA300;}
</style>
<g>
	<path class="st0" d="M33.3,117.9c-1.6-0.4-2.1,0.2-2.6,0.9c-0.5,0.7-2.5,4.8-3.9,8.3c-1.4,3.5-2.8,8.3-3,9.2
		c-0.2,0.9,0.2,2.8,1.6,2.8c1.4,0,1.9-1.4,2.1-1.8c0.2-0.4,2.3-6,3-7.9c0.7-1.9,2.6-6.9,3.2-8.8C34.5,118.8,33.3,117.9,33.3,117.9z"
		/>
	<path class="st0" d="M38.8,124.8c0,0-1.9-0.4-2.1,1.8c-0.2,1.9-0.5,18.5-0.5,21.3c0,2.8-0.4,6.2,1.6,6.2c2.1,0,1.9-2.1,1.9-2.1
		c0.5-8.3,0.7-23.8,0.7-25.4C40.2,125,38.8,124.8,38.8,124.8z"/>
	<path class="st0" d="M50.7,125.2c-1.1-2.5-2.3-1.8-2.6-1.6c-0.4,0.2-0.9,0.4-1.1,1.4c-0.2,1.1,2.8,12.9,3.5,15.7
		c0.7,2.8,1.6,3.5,3.2,3c1.6-0.4,0.9-3.3,0.9-3.3C54.3,136.1,51.8,127.6,50.7,125.2z"/>
	<path class="st0" d="M76.1,92.2c-0.4-9.7-1.2-13.4-3.9-17.3c-2.6-3.9-6.7-4.6-6.7-4.6s0.5-6.7-0.4-20.6c-0.9-13.9-7.9-32.3-11.1-39
		C52,6.5,47.6-2,44.6-7.4c-1.6-2.8-5.3-3.5-7.8-1.4C20.9,5.4,16.7,32.1,16.7,32.1c-2.1,10-4.4,22.4-4.4,37.2c0,0.7,0,1.6,0,2.3
		l-3.7,2.3L1.2,92.2c0,0-0.9,1.8-0.7,3.5C0.7,97.3,3,119.5,3,119.5s0.4,4.1,3.2,4.1s4.8-3.5,6.9-5.8c1.9-2.3,8.8-9.7,10.8-9.9
		c1.6,0.4,8.5,1.6,18.2,1.6c7.4,0,10.6-0.4,13-1.4c3.2,3.2,16.4,16,18.7,16c1.6,0,1.9-3.7,2.5-6.9C76.7,113.9,76.7,101.9,76.1,92.2z
		 M39.5-0.4c0,0,4.8,7.8,5.3,10c0.5,2.1,3.7,9.2,5.1,12.2c1.2,3,3.7,10,3.7,10H24.8C24.8,32.1,29.1,9.1,39.5-0.4z M9.1,109.5
		c-0.4-1.9-1.4-11.1-1.6-13.8c-0.2-2.6,0.4-3.2,2.1-7.4c1.6-3.9,3.4-6.2,3.7-6.7c1.2,8.8,3.5,17.1,4.1,20.1c0,0.2,0,0.2,0.2,0.4
		C15,103.8,9.1,109.5,9.1,109.5z M55.3,99.8c-0.2,0.9-0.9,1.4-1.6,1.6c-1.9,0.2-5.8,0.4-11.8,0.4c-6.9,0-13-0.5-15.7-0.9
		c-0.7,0-1.4-0.7-1.6-1.4c-1.1-4.4-4.4-19.7-4.4-30.2c0-12.2,1.8-21.3,1.8-21.3h35.3c0,0,1.2,7.1,1.2,14.6
		C58.5,69.4,56.2,93.1,55.3,99.8z M68.7,110.5c0,0-3.5-3.5-7.6-6.9c2.3-3.9,2.5-9.9,2.5-9.9l1.2-15.2c1.2,1.1,3.7,3.9,4.1,9.9
		C69.4,96.4,68.7,110.5,68.7,110.5z"/>
	<polygon class="st1" points="39.3,58.7 34.5,68.6 23.2,70.3 31.4,77.9 29.4,89.5 39.3,83.9 49.3,89.5 47.4,77.9 55.5,70.3 
		44.2,68.6 	"/>
</g>
</svg>
